<?xml version="1.0" encoding="UTF-8" standalone="no"?>
<!DOCTYPE svg PUBLIC "-//W3C//DTD SVG 1.1//EN"
 "http://www.w3.org/Graphics/SVG/1.1/DTD/svg11.dtd">
<!-- Generated by graphviz version 12.2.0 (20241103.1931)
 -->
<!-- Pages: 1 -->
<svg width="5243pt" height="348pt"
 viewBox="0.00 0.00 5243.38 348.00" xmlns="http://www.w3.org/2000/svg" xmlns:xlink="http://www.w3.org/1999/xlink">
<g id="graph0" class="graph" transform="scale(1 1) rotate(0) translate(4 344)">
<polygon fill="white" stroke="none" points="-4,4 -4,-344 5239.38,-344 5239.38,4 -4,4"/>
<text text-anchor="middle" x="2617.69" y="-7.2" font-family="Times,serif" font-size="14.00" fill="gray">rcviz nodes=10</text>
<!-- 140687572099136 -->
<g id="node1" class="node">
<title>140687572099136</title>
<path fill="#eeeeee" stroke="none" d="M1730.88,-205.5C1730.88,-205.5 3683.62,-205.5 3683.62,-205.5 3689.62,-205.5 3695.62,-211.5 3695.62,-217.5 3695.62,-217.5 3695.62,-237.5 3695.62,-237.5 3695.62,-243.5 3689.62,-249.5 3683.62,-249.5 3683.62,-249.5 1730.88,-249.5 1730.88,-249.5 1724.88,-249.5 1718.88,-243.5 1718.88,-237.5 1718.88,-237.5 1718.88,-217.5 1718.88,-217.5 1718.88,-211.5 1724.88,-205.5 1730.88,-205.5"/>
<text text-anchor="start" x="2502.12" y="-233.15" font-family="Times,serif" font-size="13.00">dfs_wfomc_real([1 + 2*x0 + x0**2, &#45;1 &#45; x0, x0 + 2*x0**2 + x0**3],4,None)</text>
<text text-anchor="start" x="1722.88" y="-212.15" font-family="Times,serif" font-size="13.00">ret: 625*x0**4 + 7500*x0**5 + 43750*x0**6 + 165000*x0**7 + 451125*x0**8 + 950000*x0**9 + 1597750*x0**10 + 2196000*x0**11 + 2503150*x0**12 + 2387700*x0**13 + 1914750*x0**14 + 1292000*x0**15 + 731595*x0**16 + 345420*x0**17 + 134520*x0**18 + 42500*x0**19 + 10626*x0**20 + 2024*x0**21 + 276*x0**22 + 24*x0**23 + x0**24</text>
<polygon fill="gray" stroke="gray" points="1718.88,-227.5 1718.88,-227.5 3695.62,-227.5 3695.62,-227.5 1718.88,-227.5"/>
</g>
<!-- 140687572102208 -->
<g id="node2" class="node">
<title>140687572102208</title>
<path fill="#eeeeee" stroke="none" d="M3743.12,-205.5C3743.12,-205.5 5223.38,-205.5 5223.38,-205.5 5229.38,-205.5 5235.38,-211.5 5235.38,-217.5 5235.38,-217.5 5235.38,-237.5 5235.38,-237.5 5235.38,-243.5 5229.38,-249.5 5223.38,-249.5 5223.38,-249.5 3743.12,-249.5 3743.12,-249.5 3737.12,-249.5 3731.12,-243.5 3731.12,-237.5 3731.12,-237.5 3731.12,-217.5 3731.12,-217.5 3731.12,-211.5 3737.12,-205.5 3743.12,-205.5"/>
<text text-anchor="start" x="4350.88" y="-233.15" font-family="Times,serif" font-size="13.00">dfs_wfomc_real([1 + x0, &#45;1, x0 + x0**2],4,None)</text>
<text text-anchor="start" x="3735.12" y="-212.15" font-family="Times,serif" font-size="13.00">ret: 625*x0**4 + 5000*x0**5 + 20000*x0**6 + 52500*x0**7 + 100500*x0**8 + 148000*x0**9 + 172750*x0**10 + 162500*x0**11 + 124150*x0**12 + 77100*x0**13 + 38700*x0**14 + 15500*x0**15 + 4845*x0**16 + 1140*x0**17 + 190*x0**18 + 20*x0**19 + x0**20</text>
<polygon fill="gray" stroke="gray" points="3731.12,-227.5 3731.12,-227.5 5235.38,-227.5 5235.38,-227.5 3731.12,-227.5"/>
</g>
<!-- 140687572099136&#45;&gt;140687572102208 -->
<!-- 140687572099648 -->
<g id="node3" class="node">
<title>140687572099648</title>
<path fill="#eeeeee" stroke="none" d="M599.62,-115C599.62,-115 2268.88,-115 2268.88,-115 2274.88,-115 2280.88,-121 2280.88,-127 2280.88,-127 2280.88,-147 2280.88,-147 2280.88,-153 2274.88,-159 2268.88,-159 2268.88,-159 599.62,-159 599.62,-159 593.62,-159 587.62,-153 587.62,-147 587.62,-147 587.62,-127 587.62,-127 587.62,-121 593.62,-115 599.62,-115"/>
<text text-anchor="start" x="1078.75" y="-142.65" font-family="Times,serif" font-size="13.00">dfs_wfomc_real([1 + 4*x0 + 6*x0**2 + 4*x0**3 + x0**4, &#45;1 &#45; 2*x0 &#45; x0**2, x0 + 4*x0**2 + 6*x0**3 + 4*x0**4 + x0**5],3,None)</text>
<text text-anchor="start" x="591.62" y="-121.65" font-family="Times,serif" font-size="13.00">ret: 125*x0**3 + 1500*x0**4 + 8625*x0**5 + 31625*x0**6 + 82950*x0**7 + 165375*x0**8 + 259775*x0**9 + 328725*x0**10 + 339615*x0**11 + 288470*x0**12 + 201810*x0**13 + 115920*x0**14 + 54216*x0**15 + 20346*x0**16 + 5985*x0**17 + 1330*x0**18 + 210*x0**19 + 21*x0**20 + x0**21</text>
<polygon fill="gray" stroke="gray" points="587.62,-137 587.62,-137 2280.88,-137 2280.88,-137 587.62,-137"/>
</g>
<!-- 140687572099136&#45;&gt;140687572099648 -->
<g id="edge4" class="edge">
<title>140687572099136&#45;&gt;140687572099648</title>
<path fill="none" stroke="#282828" d="M2405.57,-205.53C2207.22,-191.74 1948.23,-173.73 1747.56,-159.78"/>
<polygon fill="#282828" stroke="#282828" points="1747.98,-156.3 1737.76,-159.1 1747.49,-163.29 1747.98,-156.3"/>
<text text-anchor="middle" x="2120.17" y="-179.9" font-family="Times,serif" font-size="8.00" fill="#999999">2 (⇑3)</text>
</g>
<!-- 140687572101184 -->
<g id="node4" class="node">
<title>140687572101184</title>
<path fill="#eeeeee" stroke="none" d="M2328.75,-115C2328.75,-115 3653.75,-115 3653.75,-115 3659.75,-115 3665.75,-121 3665.75,-127 3665.75,-127 3665.75,-147 3665.75,-147 3665.75,-153 3659.75,-159 3653.75,-159 3653.75,-159 2328.75,-159 2328.75,-159 2322.75,-159 2316.75,-153 2316.75,-147 2316.75,-147 2316.75,-127 2316.75,-127 2316.75,-121 2322.75,-115 2328.75,-115"/>
<text text-anchor="start" x="2725.38" y="-142.65" font-family="Times,serif" font-size="13.00">dfs_wfomc_real([1 + 3*x0 + 3*x0**2 + x0**3, &#45;1 &#45; x0, x0 + 3*x0**2 + 3*x0**3 + x0**4],3,None)</text>
<text text-anchor="start" x="2320.75" y="-121.65" font-family="Times,serif" font-size="13.00">ret: 125*x0**3 + 1125*x0**4 + 4875*x0**5 + 13500*x0**6 + 26700*x0**7 + 39900*x0**8 + 46475*x0**9 + 42900*x0**10 + 31590*x0**11 + 18525*x0**12 + 8565*x0**13 + 3060*x0**14 + 816*x0**15 + 153*x0**16 + 18*x0**17 + x0**18</text>
<polygon fill="gray" stroke="gray" points="2316.75,-137 2316.75,-137 3665.75,-137 3665.75,-137 2316.75,-137"/>
</g>
<!-- 140687572099136&#45;&gt;140687572101184 -->
<g id="edge5" class="edge">
<title>140687572099136&#45;&gt;140687572101184</title>
<path fill="none" stroke="#646464" d="M2774.55,-205.53C2816.14,-192.57 2869.67,-175.89 2913.12,-162.35"/>
<polygon fill="#646464" stroke="#646464" points="2913.99,-165.74 2922.49,-159.43 2911.9,-159.06 2913.99,-165.74"/>
<text text-anchor="middle" x="2869.02" y="-179.9" font-family="Times,serif" font-size="8.00" fill="#999999">5 (⇑5)</text>
</g>
<!-- 140687572107328 -->
<g id="node7" class="node">
<title>140687572107328</title>
<path fill="#eeeeee" stroke="none" d="M3978.62,-115C3978.62,-115 4987.88,-115 4987.88,-115 4993.88,-115 4999.88,-121 4999.88,-127 4999.88,-127 4999.88,-147 4999.88,-147 4999.88,-153 4993.88,-159 4987.88,-159 4987.88,-159 3978.62,-159 3978.62,-159 3972.62,-159 3966.62,-153 3966.62,-147 3966.62,-147 3966.62,-127 3966.62,-127 3966.62,-121 3972.62,-115 3978.62,-115"/>
<text text-anchor="start" x="4290.12" y="-142.65" font-family="Times,serif" font-size="13.00">dfs_wfomc_real([1 + 2*x0 + x0**2, &#45;1, x0 + 2*x0**2 + x0**3],3,None)</text>
<text text-anchor="start" x="3970.62" y="-121.65" font-family="Times,serif" font-size="13.00">ret: 125*x0**3 + 750*x0**4 + 2250*x0**5 + 4375*x0**6 + 6075*x0**7 + 6300*x0**8 + 4975*x0**9 + 3000*x0**10 + 1365*x0**11 + 455*x0**12 + 105*x0**13 + 15*x0**14 + x0**15</text>
<polygon fill="gray" stroke="gray" points="3966.62,-137 3966.62,-137 4999.88,-137 4999.88,-137 3966.62,-137"/>
</g>
<!-- 140687572102208&#45;&gt;140687572107328 -->
<g id="edge6" class="edge">
<title>140687572102208&#45;&gt;140687572107328</title>
<path fill="none" stroke="#a0a0a0" d="M4483.25,-205.53C4483.25,-194.95 4483.25,-181.88 4483.25,-170.07"/>
<polygon fill="#a0a0a0" stroke="#a0a0a0" points="4486.75,-170.34 4483.25,-160.34 4479.75,-170.34 4486.75,-170.34"/>
<text text-anchor="middle" x="4494.5" y="-179.9" font-family="Times,serif" font-size="8.00" fill="#999999">8 (⇑8)</text>
</g>
<!-- 140687572099648&#45;&gt;140687572101184 -->
<!-- 140687572100160 -->
<g id="node5" class="node">
<title>140687572100160</title>
<path fill="#eeeeee" stroke="none" d="M12,-24.5C12,-24.5 1200.5,-24.5 1200.5,-24.5 1206.5,-24.5 1212.5,-30.5 1212.5,-36.5 1212.5,-36.5 1212.5,-56.5 1212.5,-56.5 1212.5,-62.5 1206.5,-68.5 1200.5,-68.5 1200.5,-68.5 12,-68.5 12,-68.5 6,-68.5 0,-62.5 0,-56.5 0,-56.5 0,-36.5 0,-36.5 0,-30.5 6,-24.5 12,-24.5"/>
<text text-anchor="start" x="80.12" y="-52.15" font-family="Times,serif" font-size="13.00">dfs_wfomc_real([1 + 6*x0 + 15*x0**2 + 20*x0**3 + 15*x0**4 + 6*x0**5 + x0**6, &#45;1 &#45; 3*x0 &#45; 3*x0**2 &#45; x0**3, x0 + 6*x0**2 + 15*x0**3 + 20*x0**4 + 15*x0**5 + 6*x0**6 + x0**7],2,None)</text>
<text text-anchor="start" x="4" y="-31.15" font-family="Times,serif" font-size="13.00">ret: 25*x0**2 + 250*x0**3 + 1175*x0**4 + 3450*x0**5 + 7085*x0**6 + 10780*x0**7 + 12540*x0**8 + 11330*x0**9 + 7986*x0**10 + 4366*x0**11 + 1820*x0**12 + 560*x0**13 + 120*x0**14 + 16*x0**15 + x0**16</text>
<polygon fill="gray" stroke="gray" points="0,-46.5 0,-46.5 1212.5,-46.5 1212.5,-46.5 0,-46.5"/>
</g>
<!-- 140687572099648&#45;&gt;140687572100160 -->
<g id="edge7" class="edge">
<title>140687572099648&#45;&gt;140687572100160</title>
<path fill="none" stroke="#3c3c3c" d="M1238.03,-115.03C1110.24,-101.37 943.75,-83.57 813.77,-69.68"/>
<polygon fill="#3c3c3c" stroke="#3c3c3c" points="814.32,-66.22 804,-68.64 813.58,-73.18 814.32,-66.22"/>
<text text-anchor="middle" x="1056.33" y="-89.4" font-family="Times,serif" font-size="8.00" fill="#999999">3 (⇑1)</text>
</g>
<!-- 140687572100672 -->
<g id="node6" class="node">
<title>140687572100672</title>
<path fill="#eeeeee" stroke="none" d="M1260.12,-24.5C1260.12,-24.5 2242.38,-24.5 2242.38,-24.5 2248.38,-24.5 2254.38,-30.5 2254.38,-36.5 2254.38,-36.5 2254.38,-56.5 2254.38,-56.5 2254.38,-62.5 2248.38,-68.5 2242.38,-68.5 2242.38,-68.5 1260.12,-68.5 1260.12,-68.5 1254.12,-68.5 1248.12,-62.5 1248.12,-56.5 1248.12,-56.5 1248.12,-36.5 1248.12,-36.5 1248.12,-30.5 1254.12,-24.5 1260.12,-24.5"/>
<text text-anchor="start" x="1321.5" y="-52.15" font-family="Times,serif" font-size="13.00">dfs_wfomc_real([1 + 5*x0 + 10*x0**2 + 10*x0**3 + 5*x0**4 + x0**5, &#45;1 &#45; 2*x0 &#45; x0**2, x0 + 5*x0**2 + 10*x0**3 + 10*x0**4 + 5*x0**5 + x0**6],2,None)</text>
<text text-anchor="start" x="1252.12" y="-31.15" font-family="Times,serif" font-size="13.00">ret: 25*x0**2 + 200*x0**3 + 750*x0**4 + 1750*x0**5 + 2835*x0**6 + 3360*x0**7 + 2985*x0**8 + 2000*x0**9 + 1001*x0**10 + 364*x0**11 + 91*x0**12 + 14*x0**13 + x0**14</text>
<polygon fill="gray" stroke="gray" points="1248.12,-46.5 1248.12,-46.5 2254.38,-46.5 2254.38,-46.5 1248.12,-46.5"/>
</g>
<!-- 140687572099648&#45;&gt;140687572100672 -->
<g id="edge8" class="edge">
<title>140687572099648&#45;&gt;140687572100672</title>
<path fill="none" stroke="#505050" d="M1509.37,-115.03C1556.18,-101.96 1616.56,-85.1 1665.27,-71.5"/>
<polygon fill="#505050" stroke="#505050" points="1665.97,-74.94 1674.66,-68.88 1664.09,-68.2 1665.97,-74.94"/>
<text text-anchor="middle" x="1613.5" y="-89.4" font-family="Times,serif" font-size="8.00" fill="#999999">4 (⇑2)</text>
</g>
<!-- 140687572101696 -->
<g id="node8" class="node">
<title>140687572101696</title>
<path fill="#eeeeee" stroke="none" d="M2601.38,-24.5C2601.38,-24.5 3381.12,-24.5 3381.12,-24.5 3387.12,-24.5 3393.12,-30.5 3393.12,-36.5 3393.12,-36.5 3393.12,-56.5 3393.12,-56.5 3393.12,-62.5 3387.12,-68.5 3381.12,-68.5 3381.12,-68.5 2601.38,-68.5 2601.38,-68.5 2595.38,-68.5 2589.38,-62.5 2589.38,-56.5 2589.38,-56.5 2589.38,-36.5 2589.38,-36.5 2589.38,-30.5 2595.38,-24.5 2601.38,-24.5"/>
<text text-anchor="start" x="2664.62" y="-52.15" font-family="Times,serif" font-size="13.00">dfs_wfomc_real([1 + 4*x0 + 6*x0**2 + 4*x0**3 + x0**4, &#45;1 &#45; x0, x0 + 4*x0**2 + 6*x0**3 + 4*x0**4 + x0**5],2,None)</text>
<text text-anchor="start" x="2593.38" y="-31.15" font-family="Times,serif" font-size="13.00">ret: 25*x0**2 + 150*x0**3 + 425*x0**4 + 750*x0**5 + 910*x0**6 + 790*x0**7 + 495*x0**8 + 220*x0**9 + 66*x0**10 + 12*x0**11 + x0**12</text>
<polygon fill="gray" stroke="gray" points="2589.38,-46.5 2589.38,-46.5 3393.12,-46.5 3393.12,-46.5 2589.38,-46.5"/>
</g>
<!-- 140687572101184&#45;&gt;140687572101696 -->
<g id="edge9" class="edge">
<title>140687572101184&#45;&gt;140687572101696</title>
<path fill="none" stroke="#787878" d="M2991.25,-115.03C2991.25,-104.45 2991.25,-91.38 2991.25,-79.57"/>
<polygon fill="#787878" stroke="#787878" points="2994.75,-79.84 2991.25,-69.84 2987.75,-79.84 2994.75,-79.84"/>
<text text-anchor="middle" x="3002.5" y="-89.4" font-family="Times,serif" font-size="8.00" fill="#999999">6 (⇑4)</text>
</g>
<!-- 140687572100160&#45;&gt;140687572100672 -->
<!-- 140687572107840 -->
<g id="node9" class="node">
<title>140687572107840</title>
<path fill="#eeeeee" stroke="none" d="M4173.62,-24.5C4173.62,-24.5 4792.88,-24.5 4792.88,-24.5 4798.88,-24.5 4804.88,-30.5 4804.88,-36.5 4804.88,-36.5 4804.88,-56.5 4804.88,-56.5 4804.88,-62.5 4798.88,-68.5 4792.88,-68.5 4792.88,-68.5 4173.62,-68.5 4173.62,-68.5 4167.62,-68.5 4161.62,-62.5 4161.62,-56.5 4161.62,-56.5 4161.62,-36.5 4161.62,-36.5 4161.62,-30.5 4167.62,-24.5 4173.62,-24.5"/>
<text text-anchor="start" x="4229.38" y="-52.15" font-family="Times,serif" font-size="13.00">dfs_wfomc_real([1 + 3*x0 + 3*x0**2 + x0**3, &#45;1, x0 + 3*x0**2 + 3*x0**3 + x0**4],2,None)</text>
<text text-anchor="start" x="4165.62" y="-31.15" font-family="Times,serif" font-size="13.00">ret: 25*x0**2 + 100*x0**3 + 200*x0**4 + 250*x0**5 + 210*x0**6 + 120*x0**7 + 45*x0**8 + 10*x0**9 + x0**10</text>
<polygon fill="gray" stroke="gray" points="4161.62,-46.5 4161.62,-46.5 4804.88,-46.5 4804.88,-46.5 4161.62,-46.5"/>
</g>
<!-- 140687572107328&#45;&gt;140687572107840 -->
<g id="edge10" class="edge">
<title>140687572107328&#45;&gt;140687572107840</title>
<path fill="none" stroke="#b4b4b4" d="M4483.25,-115.03C4483.25,-104.45 4483.25,-91.38 4483.25,-79.57"/>
<polygon fill="#b4b4b4" stroke="#b4b4b4" points="4486.75,-79.84 4483.25,-69.84 4479.75,-79.84 4486.75,-79.84"/>
<text text-anchor="middle" x="4494.5" y="-89.4" font-family="Times,serif" font-size="8.00" fill="#999999">9 (⇑7)</text>
</g>
<!-- 140687571880000 -->
<g id="node10" class="node">
<title>140687571880000</title>
<path fill="#eeeeee" stroke="none" d="M2594.5,-296C2594.5,-296 4596,-296 4596,-296 4602,-296 4608,-302 4608,-308 4608,-308 4608,-328 4608,-328 4608,-334 4602,-340 4596,-340 4596,-340 2594.5,-340 2594.5,-340 2588.5,-340 2582.5,-334 2582.5,-328 2582.5,-328 2582.5,-308 2582.5,-308 2582.5,-302 2588.5,-296 2594.5,-296"/>
<text text-anchor="start" x="3500" y="-323.65" font-family="Times,serif" font-size="13.00">dfs_wfomc_real([1, &#45;1, x0],5,None)</text>
<text text-anchor="start" x="2586.5" y="-302.65" font-family="Times,serif" font-size="13.00">ret: 3125*x0**5 + 31250*x0**6 + 156250*x0**7 + 515625*x0**8 + 1253125*x0**9 + 2375000*x0**10 + 3631250*x0**11 + 4575000*x0**12 + 4813750*x0**13 + 4263750*x0**14 + 3191250*x0**15 + 2018750*x0**16 + 1075875*x0**17 + 479750*x0**18 + 177000*x0**19 + 53125*x0**20 + 12650*x0**21 + 2300*x0**22 + 300*x0**23 + 25*x0**24 + x0**25</text>
<polygon fill="gray" stroke="gray" points="2582.5,-318 2582.5,-318 4608,-318 4608,-318 2582.5,-318"/>
</g>
<!-- 140687571880000&#45;&gt;140687572099136 -->
<g id="edge11" class="edge">
<title>140687571880000&#45;&gt;140687572099136</title>
<path fill="none" stroke="#141414" d="M3384.81,-296.03C3247.48,-282.34 3068.49,-264.5 2928.97,-250.6"/>
<polygon fill="#141414" stroke="#141414" points="2929.52,-247.14 2919.23,-249.63 2928.83,-254.1 2929.52,-247.14"/>
<text text-anchor="middle" x="3189.13" y="-270.4" font-family="Times,serif" font-size="8.00" fill="#999999">1 (⇑6)</text>
</g>
<!-- 140687571880000&#45;&gt;140687572102208 -->
<g id="edge12" class="edge">
<title>140687571880000&#45;&gt;140687572102208</title>
<path fill="none" stroke="#8c8c8c" d="M3805.69,-296.03C3943.02,-282.34 4122.01,-264.5 4261.53,-250.6"/>
<polygon fill="#8c8c8c" stroke="#8c8c8c" points="4261.67,-254.1 4271.27,-249.63 4260.98,-247.14 4261.67,-254.1"/>
<text text-anchor="middle" x="4077.13" y="-270.4" font-family="Times,serif" font-size="8.00" fill="#999999">7 (⇑9)</text>
</g>
</g>
</svg>
